<?xml version="1.0" encoding="UTF-8" standalone="no"?>
<svg
   xmlns:dc="http://purl.org/dc/elements/1.1/"
   xmlns:cc="http://creativecommons.org/ns#"
   xmlns:rdf="http://www.w3.org/1999/02/22-rdf-syntax-ns#"
   xmlns:svg="http://www.w3.org/2000/svg"
   xmlns="http://www.w3.org/2000/svg"
   viewBox="0 0 202.66667 202.66667"
   height="202.66667"
   width="202.66667"
   xml:space="preserve"
   id="svg2"
   version="1.1"><metadata
     id="metadata8"><rdf:RDF><cc:Work
         rdf:about=""><dc:format>image/svg+xml</dc:format><dc:type
           rdf:resource="http://purl.org/dc/dcmitype/StillImage" /></cc:Work></rdf:RDF></metadata><defs
     id="defs6"><clipPath
       id="clipPath20"
       clipPathUnits="userSpaceOnUse"><path
         id="path18"
         d="M 0,152 H 152 V 0 H 0 Z" /></clipPath></defs><g
     transform="matrix(1.3333333,0,0,-1.3333333,0,202.66667)"
     id="g10"><path
       id="path12"
       style="fill:#2a50a3;fill-opacity:1;fill-rule:nonzero;stroke:none"
       d="M 0,0 H 152 V 152 H 0 Z" /><g
       id="g14"><g
         clip-path="url(#clipPath20)"
         id="g16"><g
           transform="translate(37.3447,33.3389)"
           id="g22"><path
             id="path24"
             style="fill:#ffffff;fill-opacity:1;fill-rule:nonzero;stroke:none"
             d="m 0,0 h 6.779 c 2.006,0 3.536,0.473 4.59,1.417 1.054,0.944 1.581,2.293 1.581,4.047 0,1.804 -0.531,3.263 -1.594,4.376 -1.062,1.112 -2.529,1.685 -4.4,1.72 H 0 Z M 0,-6.146 V -19.121 H -7.588 V 17.706 H 6.779 c 2.765,0 5.197,-0.506 7.297,-1.518 2.099,-1.011 3.714,-2.45 4.843,-4.312 1.13,-1.864 1.695,-3.984 1.695,-6.361 0,-3.61 -1.236,-6.454 -3.705,-8.537 -2.471,-2.082 -5.89,-3.124 -10.257,-3.124 z" /></g><g
           transform="translate(91.8511,24.8408)"
           id="g26"><path
             id="path28"
             style="fill:#ffffff;fill-opacity:1;fill-rule:nonzero;stroke:none"
             d="m 0,0 4.958,26.204 h 7.563 l -8.17,-36.827 h -7.639 l -5.994,24.636 -5.995,-24.636 h -7.639 l -8.169,36.827 h 7.563 l 4.982,-26.153 6.071,26.153 h 6.424 z" /></g><g
           transform="translate(116.917,27.9521)"
           id="g30"><path
             id="path32"
             style="fill:#ffffff;fill-opacity:1;fill-rule:nonzero;stroke:none"
             d="M 0,0 H 9.207 L 4.578,13.784 Z M 11.255,-6.146 H -2.049 l -2.529,-7.588 h -8.068 L 1.062,23.093 H 8.094 L 21.878,-13.734 H 13.81 Z" /></g></g></g></g></svg>