<svg xmlns="http://www.w3.org/2000/svg" viewBox="0 0 202.667 202.667" height="202.667" width="202.667"><defs><clipPath id="a" clipPathUnits="userSpaceOnUse"><path d="M0 152h152V0H0z"/></clipPath></defs><path d="M0 202.667h202.667V0H0z" fill="#2a50a3"/><g clip-path="url(#a)" transform="matrix(1.33333 0 0 -1.33333 0 202.667)"><path d="M37.345 33.339h6.779c2.006 0 3.536.473 4.59 1.417 1.054.944 1.58 2.293 1.58 4.047 0 1.804-.53 3.263-1.593 4.376-1.062 1.112-2.53 1.685-4.4 1.72h-6.956zm0-6.146V14.218h-7.588v36.827h14.367c2.765 0 5.197-.506 7.297-1.518 2.099-1.011 3.714-2.45 4.843-4.312 1.13-1.864 1.695-3.984 1.695-6.361 0-3.61-1.236-6.454-3.705-8.537-2.471-2.082-5.89-3.124-10.257-3.124zm54.506-2.353l4.958 26.205h7.563l-8.17-36.827h-7.639L82.57 38.854l-5.995-24.636h-7.639l-8.169 36.827h7.563l4.982-26.153 6.071 26.153h6.424zm25.066 3.112h9.207l-4.629 13.784zm11.255-6.146h-13.304l-2.529-7.588h-8.068l13.708 36.827h7.032l13.784-36.827h-8.068z" fill="#fff"/></g></svg>