<svg xmlns="http://www.w3.org/2000/svg" viewBox="0 0 58.1 70.662"><g data-name="Layer 2"><g data-name="Layer 15"><path d="M42.41 21.79a1 1 0 0 0-1.42 0l-5.59 5.6a5.3 5.3 0 1 0-2.89 9.73 5.29 5.29 0 0 0 5.3-5.3 5.25 5.25 0 0 0-1-3l5.58-5.57a1 1 0 0 0 .02-1.46zm-7.57 12.37a3.3 3.3 0 1 1-2.33-5.64 3.3 3.3 0 0 1 2.33 5.64zM4.2 30.9a1 1 0 0 0 1 1h17.3a1 1 0 0 0 0-2H5.2a1 1 0 0 0-1 1zM1 23.5h17.3a1 1 0 0 0 0-2H1a1 1 0 0 0 0 2zm18.3 15.8a1 1 0 0 0-1-1H1a1 1 0 0 0 0 2h17.3a1 1 0 0 0 1-1z"/><path d="M50.91 13.8l1.05-1a3.38 3.38 0 0 0 1.64.44 3.4 3.4 0 1 0-3.4-3.4 3.3 3.3 0 0 0 .37 1.51l-1.12 1.12A25.09 25.09 0 0 0 33.9 6.28V2h3.6a1 1 0 0 0 0-2h-9.1a1 1 0 0 0 0 2h3.5v4.28A25.22 25.22 0 0 0 15.72 13a1 1 0 0 0 .68 1.73h7.16a1 1 0 0 0 .47-.12 18.64 18.64 0 0 1 8.87-2.22 19 19 0 1 1-8 36.25 1 1 0 0 0-.42-.09h-7.43a1 1 0 0 0-.66 1.75 25.15 25.15 0 0 0 34.52-36.5zm2.69-5.4a1.4 1.4 0 0 1 0 2.8 1.38 1.38 0 0 1-.86-.3.92.92 0 0 0-.13-.21 1.63 1.63 0 0 0-.17-.11 1.38 1.38 0 0 1-.24-.78 1.4 1.4 0 0 1 1.4-1.4z"/></g></g></svg>